<svg width="403" height="202" xmlns="http://www.w3.org/2000/svg" xmlns:xlink="http://www.w3.org/1999/xlink" overflow="hidden"><defs><clipPath id="clip0"><rect x="153" y="1010" width="403" height="202"/></clipPath></defs><g clip-path="url(#clip0)" transform="translate(-153 -1010)"><path d="M251 1107 251 1203 155 1107Z" fill="#145B5E" fill-rule="evenodd"/><path d="M349 1011 349 1107 253 1011Z" fill="#D6DCE5" fill-rule="evenodd"/><path d="M252 1107 252 1011 348 1107Z" fill="#145B5E" fill-rule="evenodd"/><path d="M201.573 1156.12 252.831 1205.55 153.29 1206.19Z" fill="#56C48F" fill-rule="evenodd"/><path d="M156 1011 252 1011 252 1107 156 1107Z" fill="#ED7D31" fill-rule="evenodd"/><path d="M251 1107 301 1107C328.614 1107 351 1129.61 351 1157.5 351 1185.39 328.614 1208 301 1208L251 1208Z" fill="#FFCA7F" fill-rule="evenodd"/><path d="M453.247 1210.98C398.033 1212.2 352.266 1168.89 351.025 1114.22 349.784 1059.56 393.538 1014.25 448.753 1013.03 449.502 1013.01 450.251 1013 451 1013Z" fill="#56C48F" fill-rule="evenodd"/><path d="M453 1011 549 1011 453 1107Z" fill="#FFCA7F" fill-rule="evenodd"/><path d="M502.775 1057.54 547.553 1010.78 549.677 1102.45Z" fill="#145B5E" fill-rule="evenodd"/><path d="M454 1111 504.5 1111C532.39 1111 555 1133.39 555 1161 555 1188.61 532.39 1211 504.5 1211L454 1211Z" fill="#145B5E" fill-rule="evenodd"/><path d="M160 1060 206 1014 252 1060 206 1106Z" fill="#FFCA7F" fill-rule="evenodd"/><path d="M225 1059 205 1079 185 1059 205 1039Z" fill="#145B5E" fill-rule="evenodd"/><path d="M282 1058.5C282 1049.39 289.163 1042 298 1042 306.837 1042 314 1049.39 314 1058.5 314 1067.61 306.837 1075 298 1075 289.163 1075 282 1067.61 282 1058.5Z" fill="#E9EBED" fill-rule="evenodd"/><path d="M479.887 1183.3 483.725 1173.16C477.045 1162.88 479.588 1148.89 489.405 1141.9 499.222 1134.91 512.596 1137.57 519.275 1147.84 525.955 1158.12 523.412 1172.11 513.595 1179.1 506.349 1184.26 496.835 1184.3 489.55 1179.2Z" fill="#FFCA7F" fill-rule="evenodd"/><path d="M271.863 1182.36 276.504 1170.19C268.426 1157.86 271.502 1141.07 283.374 1132.68 295.246 1124.29 311.418 1127.48 319.496 1139.81 327.574 1152.14 324.498 1168.93 312.626 1177.32 303.864 1183.51 292.359 1183.56 283.548 1177.45Z" fill="#56C48F" fill-rule="evenodd"/></g></svg>